# xmcd CD database file
#
# Track frame offsets:
#	150
#	11885
#	23062
#	34940
#	48497
#	59880
#	73622
#	88075
#	98045
#	111475
#	124680
#	136000
#	148715
#	160067
#	172177
#	182512
#	192940
#	203475
#	217050
#	227545
#	240067
#	252422
#
# Disc length: 3538 seconds
#
# Revision: 2
# Processed by: cddbd v1.5.2PL0 Copyright (c) Steve Scherf et al.
# Submitted via: CDex 1.51
#
DISCID=3a0dd016
DTITLE=Muddy Waters - One More Mile - Chess Collectibles, Vol. One (Disc-1)
DYEAR=1900
DGENRE=Blues
TTITLE0=Hard Days
TTITLE1=Muddy Jumps One
TTITLE2=Burying Ground
TTITLE3=You Gonna Need My Help
TTITLE4=Rollin' And Tumbin', Part 2
TTITLE5=Rollin' Stone (Alternate Take)
TTITLE6=Country Boy
TTITLE7=She's So Pretty
TTITLE8=Oh Yeah
TTITLE9=I Don't Know Why
TTITLE10=I Want To Be Loved
TTITLE11=I Got To Find My Baby
TTITLE12=Crawlin' Kingsnake (Alternate Take)
TTITLE13=Read Way Back (Undubbed Alternate)
TTITLE14=Tiger In Your Tank
TTITLE15=Meanest Woman
TTITLE16=I Got My Brand On You
TTITLE17=Lonesome Room Blues
TTITLE18=Messin' With The Man
TTITLE19=Five Long Years
TTITLE20=You Don't Have To Go
TTITLE21=Elevate Me Mama
EXTD=
EXTT0=
EXTT1=
EXTT2=
EXTT3=
EXTT4=
EXTT5=
EXTT6=
EXTT7=
EXTT8=
EXTT9=
EXTT10=
EXTT11=
EXTT12=
EXTT13=
EXTT14=
EXTT15=
EXTT16=
EXTT17=
EXTT18=
EXTT19=
EXTT20=
EXTT21=
PLAYORDER=
